<svg width="24" height="25" viewBox="0 0 24 25" fill="none" xmlns="http://www.w3.org/2000/svg">
<path fill-rule="evenodd" clip-rule="evenodd" d="M5.46166 2.96426C5.48319 2.96427 5.50497 2.96428 5.52703 2.96428C5.54737 2.96428 5.56743 2.96427 5.58723 2.96426C5.91937 2.96412 6.1777 2.964 6.4164 3.00612C7.31582 3.16485 8.07775 3.75975 8.44987 4.59381C8.54863 4.81516 8.61118 5.06581 8.69159 5.38807C8.69638 5.40728 8.70124 5.42675 8.70617 5.44648L9.11979 7.10095L9.12884 7.13715C9.26893 7.69742 9.38782 8.17293 9.445 8.5758C9.50588 9.0047 9.50764 9.41445 9.37074 9.83497C9.23383 10.2555 8.99117 10.5857 8.68946 10.8965C8.40605 11.1885 8.03 11.5029 7.5869 11.8733L7.55829 11.8972L5.94606 13.2451C7.24937 15.6045 9.10985 17.4649 11.4692 18.7683L12.8171 17.156L12.841 17.1274C13.2115 16.6843 13.5258 16.3083 13.8178 16.0249C14.1287 15.7232 14.4588 15.4805 14.8794 15.3436C15.2999 15.2067 15.7096 15.2084 16.1385 15.2693C16.5414 15.3265 17.0169 15.4454 17.5772 15.5855L17.6134 15.5945L19.2678 16.0081C19.2876 16.0131 19.307 16.0179 19.3262 16.0227C19.6485 16.1031 19.8992 16.1657 20.1205 16.2644C20.9546 16.6366 21.5495 17.3985 21.7082 18.2979C21.7503 18.5366 21.7502 18.795 21.7501 19.1271C21.7501 19.1469 21.75 19.167 21.75 19.1873C21.75 19.2093 21.7501 19.2311 21.7501 19.2527C21.7503 19.6357 21.7504 19.9379 21.6839 20.2357C21.4418 21.3197 20.4384 22.2299 19.3361 22.3656C19.0337 22.4029 18.7738 22.3774 18.4506 22.3457C18.4351 22.3442 18.4195 22.3427 18.4038 22.3411C15.7641 22.0836 13.3885 21.4242 11.3192 20.3844C8.24504 18.8398 5.8745 16.4693 4.32988 13.3951C3.29017 11.3259 2.63072 8.95019 2.37318 6.31053C2.37164 6.29478 2.37012 6.27919 2.3686 6.26375C2.33691 5.94051 2.31144 5.68065 2.34867 5.37824C2.48439 4.27588 3.3946 3.27254 4.47857 3.03042C4.77642 2.96389 5.07865 2.96405 5.46166 2.96426ZM12.8577 19.4461C14.5381 20.1663 16.4399 20.6424 18.5494 20.8482C18.9359 20.8859 19.0317 20.8918 19.1528 20.8769C19.6256 20.8187 20.1161 20.3736 20.22 19.9088C20.2459 19.7927 20.25 19.6657 20.25 19.1873C20.25 18.7667 20.2473 18.6506 20.231 18.5586C20.1589 18.1498 19.8885 17.8034 19.5093 17.6343C19.424 17.5962 19.3121 17.5654 18.904 17.4634L17.2496 17.0497C16.6433 16.8982 16.244 16.7993 15.9277 16.7544C15.6289 16.712 15.4698 16.7289 15.3437 16.7699C15.2177 16.8109 15.0791 16.891 14.8625 17.1012C14.6333 17.3237 14.3687 17.6387 13.9679 18.1181L12.8577 19.4461ZM5.26822 11.8566L6.59618 10.7464C7.07559 10.3456 7.39063 10.081 7.6131 9.85179C7.82334 9.63518 7.90338 9.49666 7.94442 9.3706C7.98546 9.24455 8.00231 9.08546 7.95989 8.78659C7.915 8.47034 7.81613 8.07097 7.66458 7.46476L7.25096 5.81028C7.14894 5.40221 7.11808 5.29028 7.08003 5.20498C6.91088 4.82586 6.56455 4.55545 6.15572 4.4833C6.06374 4.46707 5.94766 4.46428 5.52703 4.46428C5.0486 4.46428 4.92166 4.46841 4.80557 4.49434C4.34068 4.59818 3.89564 5.08876 3.83743 5.56153C3.82252 5.68267 3.82838 5.7784 3.86609 6.16487C4.07191 8.27441 4.54807 10.1762 5.26822 11.8566Z" fill="#0D4477"/>
</svg>
