<svg width="40" height="40" viewBox="0 0 40 40" fill="none" xmlns="http://www.w3.org/2000/svg">
<path fill-rule="evenodd" clip-rule="evenodd" d="M20.0001 9.64996C20.4144 9.64996 20.7501 9.98575 20.7501 10.4V19.25H29.6001C30.0144 19.25 30.3501 19.5858 30.3501 20C30.3501 20.4142 30.0144 20.75 29.6001 20.75H20.7501V29.6C20.7501 30.0142 20.4144 30.35 20.0001 30.35C19.5859 30.35 19.2501 30.0142 19.2501 29.6V20.75H10.4001C9.98593 20.75 9.65015 20.4142 9.65015 20C9.65015 19.5858 9.98593 19.25 10.4001 19.25H19.2501V10.4C19.2501 9.98575 19.5859 9.64996 20.0001 9.64996Z" fill="#F8FAFC"/>
</svg>
